<?xml version="1.0" encoding="UTF-8"?>
<svg id="Layer_1" xmlns="http://www.w3.org/2000/svg" version="1.1" viewBox="0 0 800 180">
  <!-- Generator: Adobe Illustrator 30.1.0, SVG Export Plug-In . SVG Version: 2.1.1 Build 136)  -->
  <defs>
    <style>
      .st0 {
        fill: #006c71;
      }
    </style>
  </defs>
  <g>
    <path class="st0" d="M148.5,120.68l7.29-13.96c7.71,4.53,14.92,6.79,21.63,6.79,2.68,0,4.78-.4,6.29-1.19,1.51-.8,2.26-1.95,2.26-3.46,0-1.34-.82-2.51-2.45-3.52-1.63-1.01-4.42-1.97-8.36-2.89-8.22-1.93-14.21-4.57-17.98-7.92-3.77-3.35-5.66-7.75-5.66-13.2,0-5.87,2.2-10.54,6.6-14.02,4.4-3.48,10.62-5.22,18.67-5.22,9.89,0,19.03,2.6,27.41,7.8l-7.29,13.45c-2.43-1.68-5.45-3.06-9.05-4.15-3.61-1.09-6.92-1.63-9.93-1.63-4.95,0-7.42,1.34-7.42,4.02,0,1.43.77,2.6,2.33,3.52,1.55.92,4.46,1.89,8.74,2.89,8.21,1.84,14.25,4.49,18.11,7.92,3.85,3.44,5.78,7.71,5.78,12.83,0,6.29-2.51,11.3-7.54,15.03-5.03,3.73-11.78,5.6-20.24,5.6-10.48,0-20.2-2.89-29.17-8.68Z"/>
    <path class="st0" d="M243.05,103.33h-5.66v24.77h-20.5V35.05h20.5v51.05h6.04l13.96-22.88h23.51l-20.37,31.31,21.63,33.57h-23.89l-15.21-24.77Z"/>
    <path class="st0" d="M290.9,123.38c-4.07-3.73-6.1-8.61-6.1-14.65,0-6.79,2.53-12.11,7.61-15.97,5.07-3.85,12.01-5.78,20.81-5.78,5.03,0,10.1.67,15.21,2.01v-1.63c0-3.44-1.11-5.95-3.33-7.54-2.22-1.59-5.76-2.39-10.62-2.39-3.27,0-6.48.4-9.62,1.19-3.14.8-6.73,2.03-10.75,3.71l-4.9-14.21c5.03-2.26,9.66-3.88,13.89-4.84,4.23-.96,8.95-1.45,14.15-1.45,9.64,0,17.06,2.26,22.26,6.79,5.2,4.53,7.8,10.9,7.8,19.11v40.36h-17.73l-.38-7.92c-2.68,2.68-5.97,4.82-9.87,6.41-3.9,1.59-7.98,2.39-12.26,2.39-6.71,0-12.09-1.86-16.16-5.6ZM306.8,112.95c1.51,1.22,3.69,1.82,6.54,1.82,4.19,0,7.71-1.19,10.56-3.58,2.85-2.39,4.44-5.39,4.78-8.99-4.95-1.42-9.22-2.14-12.83-2.14s-6.5.65-8.42,1.95c-1.93,1.3-2.89,3.21-2.89,5.72,0,2.26.75,4,2.26,5.22Z"/>
    <path class="st0" d="M362.63,63.22h18.74l.25,8.93c2.93-3.35,6.12-5.85,9.56-7.48,3.44-1.63,7.38-2.45,11.82-2.45,7.38,0,13.24,2.35,17.6,7.04,4.36,4.7,6.54,10.81,6.54,18.36v40.49h-20.5v-34.96c0-8.55-3.61-12.83-10.81-12.83-4.02,0-7.15,1.26-9.37,3.77-2.22,2.51-3.33,5.91-3.33,10.19v33.82h-20.5V63.22Z"/>
    <path class="st0" d="M456.12,125.46c-5.49-2.85-9.75-6.85-12.76-12.01s-4.53-11.08-4.53-17.79,1.51-12.64,4.53-17.79,7.27-9.16,12.76-12.01c5.49-2.85,11.8-4.28,18.92-4.28s13.41,1.43,18.86,4.28c5.45,2.85,9.68,6.85,12.7,12.01s4.53,11.09,4.53,17.79-1.51,12.64-4.53,17.79-7.25,9.16-12.7,12.01c-5.45,2.85-11.74,4.28-18.86,4.28s-13.43-1.43-18.92-4.28ZM463.47,107.6c2.93,3.02,6.79,4.53,11.57,4.53s8.51-1.51,11.44-4.53c2.93-3.02,4.4-7,4.4-11.95s-1.47-8.82-4.4-11.88c-2.93-3.06-6.75-4.59-11.44-4.59s-8.53,1.53-11.5,4.59c-2.98,3.06-4.46,7.02-4.46,11.88s1.47,8.93,4.4,11.95Z"/>
    <path class="st0" d="M523.45,63.22h18.74l.25,8.8c2.26-2.93,5.07-5.28,8.42-7.04,3.35-1.76,7.17-2.64,11.44-2.64,3.18,0,6.24.5,9.18,1.51l-4.53,18.99c-2.77-.84-5.45-1.26-8.05-1.26-5.11,0-8.89,1.59-11.32,4.78-2.43,3.19-3.65,7.67-3.65,13.45v28.29h-20.5V63.22Z"/>
    <path class="st0" d="M587.45,125.27c-4.61-2.89-8.22-6.92-10.81-12.07-2.6-5.16-3.9-11-3.9-17.54s1.3-12.39,3.9-17.54c2.6-5.16,6.2-9.16,10.81-12.01,4.61-2.85,9.85-4.28,15.72-4.28,4.19,0,8.09.78,11.69,2.33,3.6,1.55,6.75,3.75,9.43,6.6v-35.71h20.5v93.05h-18.74l-.25-8.68c-2.6,3.27-5.83,5.78-9.68,7.54-3.86,1.76-8.17,2.64-12.95,2.64-5.87,0-11.11-1.45-15.72-4.34ZM597.39,107.54c2.93,3.06,6.75,4.59,11.44,4.59s8.4-1.53,11.38-4.59c2.97-3.06,4.46-7.02,4.46-11.88s-1.47-8.82-4.4-11.88c-2.94-3.06-6.75-4.59-11.44-4.59s-8.51,1.53-11.44,4.59c-2.93,3.06-4.4,7.02-4.4,11.88s1.47,8.82,4.4,11.88Z"/>
    <path class="st0" d="M674.47,125.46c-5.53-2.85-9.81-6.83-12.83-11.95-3.02-5.11-4.53-11.02-4.53-17.73s1.45-12.53,4.34-17.73c2.89-5.2,6.98-9.24,12.26-12.13s11.27-4.34,17.98-4.34,12.66,1.47,17.86,4.4c5.2,2.94,9.22,7,12.07,12.2,2.85,5.2,4.28,11.06,4.28,17.6,0,2.1-.21,4.53-.63,7.29h-48.41c1.01,3.44,3.12,6.14,6.35,8.11,3.23,1.97,7.23,2.96,12.01,2.96,7.12,0,13.62-2.14,19.49-6.41l7.92,12.83c-3.69,2.94-8.01,5.2-12.95,6.79-4.95,1.59-10.27,2.39-15.97,2.39-7.29,0-13.71-1.43-19.24-4.28ZM707.03,90c-.84-3.85-2.58-6.94-5.22-9.24-2.64-2.3-5.97-3.46-10-3.46s-7.27,1.15-10,3.46c-2.73,2.31-4.46,5.39-5.22,9.24h30.43Z"/>
    <path class="st0" d="M737.59,63.22h18.74l.25,8.8c2.26-2.93,5.07-5.28,8.42-7.04,3.35-1.76,7.17-2.64,11.44-2.64,3.18,0,6.24.5,9.18,1.51l-4.53,18.99c-2.77-.84-5.45-1.26-8.05-1.26-5.11,0-8.89,1.59-11.32,4.78-2.43,3.19-3.65,7.67-3.65,13.45v28.29h-20.5V63.22Z"/>
  </g>
  <g>
    <path class="st0" d="M39.12,110.06l16.62,3.25,3.25-16.61-16.62-3.25-3.25,16.61ZM45.03,97.42l9.97,1.95-1.95,9.97-9.97-1.95,1.95-9.97Z"/>
    <path class="st0" d="M45.95,75.18l16.62,3.25,3.25-16.61-16.62-3.26-3.25,16.61ZM51.87,62.53l9.97,1.95-1.95,9.97-9.97-1.95,1.95-9.97Z"/>
    <path class="st0" d="M110.86,20.71l-52.74-10.33c-9.77-1.91-19.25,4.46-21.17,14.23l-22.24,113.51c-1.91,9.77,4.46,19.25,14.23,21.17l52.74,10.33c9.77,1.91,19.25-4.46,21.17-14.23l22.24-113.51c1.91-9.77-4.46-19.25-14.23-21.17ZM62.6,95.83l-3.87,19.72c-.18.91-.89,1.49-1.97,1.42l-19.89-3.91c-1-.2-1.58-1.05-1.38-2.05l3.86-19.74c.2-1.01,1.04-1.65,2.08-1.44l19.73,3.86c1.09.21,1.66,1.06,1.45,2.15ZM63.58,82.08l-19.87-3.91c-1.04-.2-1.58-1.11-1.38-2.12l3.87-19.74c.2-1,1.06-1.58,2.06-1.38l19.74,3.86c1.01.2,1.65,1.04,1.45,2.08l-3.93,20.05c-.33.79-.88,1.23-1.94,1.16ZM73.47,121.1l-4.09-.8.8-4.09,4.09.8-.8,4.09ZM74.81,114.27l-4.09-.8.8-4.09,4.09.8-.8,4.09ZM72.06,106.64l.8-4.09,4.09.8-.8,4.09-4.09-.8ZM80.33,122.44l-4.09-.8.8-4.09,4.09.8-.8,4.09ZM81.67,115.62l-4.09-.8.8-4.09,4.09.8-.8,4.09ZM78.89,107.95l.8-4.09,4.09.8-.8,4.09-4.09-.8ZM87.13,123.77l-4.09-.8.8-4.09,4.09.8-.8,4.09ZM88.46,116.98l-4.09-.8.8-4.09,4.09.8-.8,4.09ZM93.96,125.11l-4.09-.8.8-4.09,4.09.8-.8,4.09ZM95.29,118.29l-4.09-.8.8-4.09,4.09.8-.8,4.09ZM104.34,67.7l-3.86,19.74c-.18.91-.81,1.51-1.92,1.5l-19.88-3.9c-1.09-.21-1.66-1.06-1.45-2.15l3.87-19.72c.2-1.04,1.11-1.58,2.12-1.38l19.74,3.87c1,.2,1.58,1.06,1.38,2.06Z"/>
    <path class="st0" d="M80.83,82.01l16.62,3.25,3.25-16.61-16.62-3.25-3.25,16.61ZM86.77,69.36l9.97,1.95-1.95,9.97-9.97-1.95,1.95-9.97Z"/>
  </g>
</svg>